<?xml version="1.0" encoding="UTF-8" standalone="no"?>
<!DOCTYPE svg PUBLIC "-//W3C//DTD SVG 1.1//EN"
 "http://www.w3.org/Graphics/SVG/1.1/DTD/svg11.dtd">
<!-- Generated by graphviz version 2.47.0 (20210316.0004)
 -->
<!-- Title: dbml Pages: 1 -->
<svg width="1545pt" height="1366pt"
 viewBox="0.00 0.00 1545.13 1366.07" xmlns="http://www.w3.org/2000/svg" xmlns:xlink="http://www.w3.org/1999/xlink">
<g id="graph0" class="graph" transform="scale(1 1) rotate(0) translate(4 1362.07)">
<title>dbml</title>
<!-- User -->
<g id="User" class="node">
<title>User</title>
<ellipse fill="none" stroke="black" stroke-width="0" cx="1318.63" cy="-1032.11" rx="218.49" ry="214.92"/>
<polygon fill="#1d71b8" stroke="transparent" points="1166.63,-1122.11 1166.63,-1182.11 1471.63,-1182.11 1471.63,-1122.11 1166.63,-1122.11"/>
<polygon fill="none" stroke="#29235c" points="1166.63,-1122.11 1166.63,-1182.11 1471.63,-1182.11 1471.63,-1122.11 1166.63,-1122.11"/>
<text text-anchor="start" x="1223.11" y="-1143.31" font-family="Helvetica,sans-Serif" font-weight="bold" font-size="32.00" fill="#ffffff"> &#160;&#160;&#160;&#160;&#160;&#160;User &#160;&#160;&#160;&#160;&#160;&#160;</text>
<polygon fill="#e7e2dd" stroke="transparent" points="1166.63,-1062.11 1166.63,-1122.11 1471.63,-1122.11 1471.63,-1062.11 1166.63,-1062.11"/>
<polygon fill="none" stroke="#29235c" points="1166.63,-1062.11 1166.63,-1122.11 1471.63,-1122.11 1471.63,-1062.11 1166.63,-1062.11"/>
<text text-anchor="start" x="1177.63" y="-1083.31" font-family="Helvetica,sans-Serif" font-weight="bold" font-size="32.00" fill="#29235c">id</text>
<text text-anchor="start" x="1202.52" y="-1083.31" font-family="Helvetica,sans-Serif" font-size="32.00" fill="#29235c"> &#160;&#160;&#160;</text>
<text text-anchor="start" x="1362.83" y="-1083.31" font-family="Helvetica,sans-Serif" font-style="italic" font-size="32.00" fill="#29235c">integer</text>
<polygon fill="#e7e2dd" stroke="transparent" points="1166.63,-1002.11 1166.63,-1062.11 1471.63,-1062.11 1471.63,-1002.11 1166.63,-1002.11"/>
<polygon fill="none" stroke="#29235c" points="1166.63,-1002.11 1166.63,-1062.11 1471.63,-1062.11 1471.63,-1002.11 1166.63,-1002.11"/>
<text text-anchor="start" x="1177.22" y="-1022.31" font-family="Helvetica,sans-Serif" font-size="32.00" fill="#29235c">username &#160;&#160;&#160;</text>
<text text-anchor="start" x="1354.29" y="-1023.31" font-family="Helvetica,sans-Serif" font-style="italic" font-size="32.00" fill="#29235c">varchar</text>
<polygon fill="#e7e2dd" stroke="transparent" points="1166.63,-942.11 1166.63,-1002.11 1471.63,-1002.11 1471.63,-942.11 1166.63,-942.11"/>
<polygon fill="none" stroke="#29235c" points="1166.63,-942.11 1166.63,-1002.11 1471.63,-1002.11 1471.63,-942.11 1166.63,-942.11"/>
<text text-anchor="start" x="1177.63" y="-962.31" font-family="Helvetica,sans-Serif" font-size="32.00" fill="#29235c">email &#160;&#160;&#160;</text>
<text text-anchor="start" x="1353.96" y="-963.31" font-family="Helvetica,sans-Serif" font-style="italic" font-size="32.00" fill="#29235c">varchar</text>
<polygon fill="#e7e2dd" stroke="transparent" points="1166.63,-882.11 1166.63,-942.11 1471.63,-942.11 1471.63,-882.11 1166.63,-882.11"/>
<polygon fill="none" stroke="#29235c" points="1166.63,-882.11 1166.63,-942.11 1471.63,-942.11 1471.63,-882.11 1166.63,-882.11"/>
<text text-anchor="start" x="1177.63" y="-902.31" font-family="Helvetica,sans-Serif" font-size="32.00" fill="#29235c">groups &#160;&#160;&#160;</text>
<text text-anchor="start" x="1353.96" y="-903.31" font-family="Helvetica,sans-Serif" font-style="italic" font-size="32.00" fill="#29235c">varchar</text>
<polygon fill="none" stroke="#29235c" stroke-width="2" points="1165.13,-881.11 1165.13,-1183.11 1472.13,-1183.11 1472.13,-881.11 1165.13,-881.11"/>
</g>
<!-- Tag -->
<g id="Tag" class="node">
<title>Tag</title>
<ellipse fill="none" stroke="black" stroke-width="0" cx="803.92" cy="-130.11" rx="174.81" ry="130.22"/>
<polygon fill="#1d71b8" stroke="transparent" points="682.92,-160.11 682.92,-220.11 925.92,-220.11 925.92,-160.11 682.92,-160.11"/>
<polygon fill="none" stroke="#29235c" points="682.92,-160.11 682.92,-220.11 925.92,-220.11 925.92,-160.11 682.92,-160.11"/>
<text text-anchor="start" x="714.61" y="-181.31" font-family="Helvetica,sans-Serif" font-weight="bold" font-size="32.00" fill="#ffffff"> &#160;&#160;&#160;&#160;&#160;&#160;Tag &#160;&#160;&#160;&#160;&#160;&#160;</text>
<polygon fill="#e7e2dd" stroke="transparent" points="682.92,-100.11 682.92,-160.11 925.92,-160.11 925.92,-100.11 682.92,-100.11"/>
<polygon fill="none" stroke="#29235c" points="682.92,-100.11 682.92,-160.11 925.92,-160.11 925.92,-100.11 682.92,-100.11"/>
<text text-anchor="start" x="693.92" y="-121.31" font-family="Helvetica,sans-Serif" font-weight="bold" font-size="32.00" fill="#29235c">id</text>
<text text-anchor="start" x="718.81" y="-121.31" font-family="Helvetica,sans-Serif" font-size="32.00" fill="#29235c"> &#160;&#160;&#160;</text>
<text text-anchor="start" x="817.12" y="-121.31" font-family="Helvetica,sans-Serif" font-style="italic" font-size="32.00" fill="#29235c">integer</text>
<polygon fill="#e7e2dd" stroke="transparent" points="682.92,-40.11 682.92,-100.11 925.92,-100.11 925.92,-40.11 682.92,-40.11"/>
<polygon fill="none" stroke="#29235c" points="682.92,-40.11 682.92,-100.11 925.92,-100.11 925.92,-40.11 682.92,-40.11"/>
<text text-anchor="start" x="693.62" y="-60.31" font-family="Helvetica,sans-Serif" font-size="32.00" fill="#29235c">name &#160;&#160;&#160;</text>
<text text-anchor="start" x="808.58" y="-61.31" font-family="Helvetica,sans-Serif" font-style="italic" font-size="32.00" fill="#29235c">varchar</text>
<polygon fill="none" stroke="#29235c" stroke-width="2" points="681.42,-39.11 681.42,-221.11 926.42,-221.11 926.42,-39.11 681.42,-39.11"/>
</g>
<!-- Proposal -->
<g id="Proposal" class="node">
<title>Proposal</title>
<ellipse fill="none" stroke="black" stroke-width="0" cx="803.92" cy="-701.11" rx="260.43" ry="384.83"/>
<polygon fill="#1d71b8" stroke="transparent" points="621.92,-911.11 621.92,-971.11 985.92,-971.11 985.92,-911.11 621.92,-911.11"/>
<polygon fill="none" stroke="#29235c" points="621.92,-911.11 621.92,-971.11 985.92,-971.11 985.92,-911.11 621.92,-911.11"/>
<text text-anchor="start" x="678.54" y="-932.31" font-family="Helvetica,sans-Serif" font-weight="bold" font-size="32.00" fill="#ffffff"> &#160;&#160;&#160;&#160;&#160;&#160;Proposal &#160;&#160;&#160;&#160;&#160;&#160;</text>
<polygon fill="#e7e2dd" stroke="transparent" points="621.92,-851.11 621.92,-911.11 985.92,-911.11 985.92,-851.11 621.92,-851.11"/>
<polygon fill="none" stroke="#29235c" points="621.92,-851.11 621.92,-911.11 985.92,-911.11 985.92,-851.11 621.92,-851.11"/>
<text text-anchor="start" x="632.92" y="-872.31" font-family="Helvetica,sans-Serif" font-weight="bold" font-size="32.00" fill="#29235c">id</text>
<text text-anchor="start" x="657.81" y="-872.31" font-family="Helvetica,sans-Serif" font-size="32.00" fill="#29235c"> &#160;&#160;&#160;</text>
<text text-anchor="start" x="877.12" y="-872.31" font-family="Helvetica,sans-Serif" font-style="italic" font-size="32.00" fill="#29235c">integer</text>
<polygon fill="#e7e2dd" stroke="transparent" points="621.92,-791.11 621.92,-851.11 985.92,-851.11 985.92,-791.11 621.92,-791.11"/>
<polygon fill="none" stroke="#29235c" points="621.92,-791.11 621.92,-851.11 985.92,-851.11 985.92,-791.11 621.92,-791.11"/>
<text text-anchor="start" x="632.92" y="-811.31" font-family="Helvetica,sans-Serif" font-size="32.00" fill="#29235c">author_id &#160;&#160;&#160;</text>
<text text-anchor="start" x="877.12" y="-812.31" font-family="Helvetica,sans-Serif" font-style="italic" font-size="32.00" fill="#29235c">integer</text>
<polygon fill="#e7e2dd" stroke="transparent" points="621.92,-731.11 621.92,-791.11 985.92,-791.11 985.92,-731.11 621.92,-731.11"/>
<polygon fill="none" stroke="#29235c" points="621.92,-731.11 621.92,-791.11 985.92,-791.11 985.92,-731.11 621.92,-731.11"/>
<text text-anchor="start" x="632.92" y="-751.31" font-family="Helvetica,sans-Serif" font-size="32.00" fill="#29235c">title &#160;&#160;&#160;</text>
<text text-anchor="start" x="868.25" y="-752.31" font-family="Helvetica,sans-Serif" font-style="italic" font-size="32.00" fill="#29235c">varchar</text>
<polygon fill="#e7e2dd" stroke="transparent" points="621.92,-671.11 621.92,-731.11 985.92,-731.11 985.92,-671.11 621.92,-671.11"/>
<polygon fill="none" stroke="#29235c" points="621.92,-671.11 621.92,-731.11 985.92,-731.11 985.92,-671.11 621.92,-671.11"/>
<text text-anchor="start" x="632.92" y="-691.31" font-family="Helvetica,sans-Serif" font-size="32.00" fill="#29235c">abstract &#160;&#160;&#160;</text>
<text text-anchor="start" x="923.34" y="-692.31" font-family="Helvetica,sans-Serif" font-style="italic" font-size="32.00" fill="#29235c">text</text>
<polygon fill="#e7e2dd" stroke="transparent" points="621.92,-611.11 621.92,-671.11 985.92,-671.11 985.92,-611.11 621.92,-611.11"/>
<polygon fill="none" stroke="#29235c" points="621.92,-611.11 621.92,-671.11 985.92,-671.11 985.92,-611.11 621.92,-611.11"/>
<text text-anchor="start" x="632.92" y="-631.31" font-family="Helvetica,sans-Serif" font-size="32.00" fill="#29235c">private_notes &#160;&#160;&#160;</text>
<text text-anchor="start" x="923.34" y="-632.31" font-family="Helvetica,sans-Serif" font-style="italic" font-size="32.00" fill="#29235c">text</text>
<polygon fill="#e7e2dd" stroke="transparent" points="621.92,-551.11 621.92,-611.11 985.92,-611.11 985.92,-551.11 621.92,-551.11"/>
<polygon fill="none" stroke="#29235c" points="621.92,-551.11 621.92,-611.11 985.92,-611.11 985.92,-551.11 621.92,-551.11"/>
<text text-anchor="start" x="632.92" y="-571.31" font-family="Helvetica,sans-Serif" font-size="32.00" fill="#29235c">status &#160;&#160;&#160;</text>
<text text-anchor="start" x="868.25" y="-572.31" font-family="Helvetica,sans-Serif" font-style="italic" font-size="32.00" fill="#29235c">varchar</text>
<polygon fill="#e7e2dd" stroke="transparent" points="621.92,-491.11 621.92,-551.11 985.92,-551.11 985.92,-491.11 621.92,-491.11"/>
<polygon fill="none" stroke="#29235c" points="621.92,-491.11 621.92,-551.11 985.92,-551.11 985.92,-491.11 621.92,-491.11"/>
<text text-anchor="start" x="632.92" y="-511.31" font-family="Helvetica,sans-Serif" font-size="32.00" fill="#29235c">created_at &#160;&#160;&#160;</text>
<text text-anchor="start" x="827.36" y="-512.31" font-family="Helvetica,sans-Serif" font-style="italic" font-size="32.00" fill="#29235c">timestamp</text>
<polygon fill="#e7e2dd" stroke="transparent" points="621.92,-431.11 621.92,-491.11 985.92,-491.11 985.92,-431.11 621.92,-431.11"/>
<polygon fill="none" stroke="#29235c" points="621.92,-431.11 621.92,-491.11 985.92,-491.11 985.92,-431.11 621.92,-431.11"/>
<text text-anchor="start" x="632.58" y="-451.31" font-family="Helvetica,sans-Serif" font-size="32.00" fill="#29235c">updated_at &#160;&#160;&#160;</text>
<text text-anchor="start" x="827.64" y="-452.31" font-family="Helvetica,sans-Serif" font-style="italic" font-size="32.00" fill="#29235c">timestamp</text>
<polygon fill="none" stroke="#29235c" stroke-width="2" points="620.92,-430.11 620.92,-972.11 986.92,-972.11 986.92,-430.11 620.92,-430.11"/>
</g>
<!-- Proposal&#45;&gt;User -->
<!-- Proposal&#45;&gt;User -->
<g id="edge2" class="edge">
<title>Proposal:e&#45;&gt;User:w</title>
<path fill="none" stroke="#29235c" stroke-width="3" d="M986.92,-821.11C1127.67,-821.11 1026.57,-1079.04 1155.51,-1091.63"/>
<polygon fill="#29235c" stroke="#29235c" stroke-width="3" points="1155.48,-1095.13 1165.63,-1092.11 1155.81,-1088.14 1155.48,-1095.13"/>
<text text-anchor="middle" x="1156.73" y="-1101.71" font-family="Helvetica,sans-Serif" font-size="32.00" fill="#29235c">1</text>
<text text-anchor="middle" x="980.7" y="-792.31" font-family="Helvetica,sans-Serif" font-size="32.00" fill="#29235c">*</text>
</g>
<!-- ProposalTag -->
<g id="ProposalTag" class="node">
<title>ProposalTag</title>
<ellipse fill="none" stroke="black" stroke-width="0" cx="253.85" cy="-162.11" rx="234.1" ry="130.22"/>
<polygon fill="#1d71b8" stroke="transparent" points="90.85,-192.11 90.85,-252.11 417.85,-252.11 417.85,-192.11 90.85,-192.11"/>
<polygon fill="none" stroke="#29235c" points="90.85,-192.11 90.85,-252.11 417.85,-252.11 417.85,-192.11 90.85,-192.11"/>
<text text-anchor="start" x="101.41" y="-213.31" font-family="Helvetica,sans-Serif" font-weight="bold" font-size="32.00" fill="#ffffff"> &#160;&#160;&#160;&#160;&#160;&#160;ProposalTag &#160;&#160;&#160;&#160;&#160;&#160;</text>
<polygon fill="#e7e2dd" stroke="transparent" points="90.85,-132.11 90.85,-192.11 417.85,-192.11 417.85,-132.11 90.85,-132.11"/>
<polygon fill="none" stroke="#29235c" points="90.85,-132.11 90.85,-192.11 417.85,-192.11 417.85,-132.11 90.85,-132.11"/>
<text text-anchor="start" x="101.85" y="-152.31" font-family="Helvetica,sans-Serif" font-size="32.00" fill="#29235c">proposal_id &#160;&#160;&#160;</text>
<text text-anchor="start" x="309.05" y="-153.31" font-family="Helvetica,sans-Serif" font-style="italic" font-size="32.00" fill="#29235c">integer</text>
<polygon fill="#e7e2dd" stroke="transparent" points="90.85,-72.11 90.85,-132.11 417.85,-132.11 417.85,-72.11 90.85,-72.11"/>
<polygon fill="none" stroke="#29235c" points="90.85,-72.11 90.85,-132.11 417.85,-132.11 417.85,-72.11 90.85,-72.11"/>
<text text-anchor="start" x="101.85" y="-92.31" font-family="Helvetica,sans-Serif" font-size="32.00" fill="#29235c">tag_id &#160;&#160;&#160;</text>
<text text-anchor="start" x="309.05" y="-93.31" font-family="Helvetica,sans-Serif" font-style="italic" font-size="32.00" fill="#29235c">integer</text>
<polygon fill="none" stroke="#29235c" stroke-width="2" points="89.35,-71.11 89.35,-253.11 418.35,-253.11 418.35,-71.11 89.35,-71.11"/>
</g>
<!-- ProposalTag&#45;&gt;Tag -->
<!-- ProposalTag&#45;&gt;Tag -->
<g id="edge6" class="edge">
<title>ProposalTag:e&#45;&gt;Tag:w</title>
<path fill="none" stroke="#29235c" stroke-width="3" d="M418.85,-102.11C532.99,-102.11 562.63,-128.49 671.81,-130.04"/>
<polygon fill="#29235c" stroke="#29235c" stroke-width="3" points="671.89,-133.54 681.92,-130.11 671.94,-126.54 671.89,-133.54"/>
<text text-anchor="middle" x="673.02" y="-101.31" font-family="Helvetica,sans-Serif" font-size="32.00" fill="#29235c">1</text>
<text text-anchor="middle" x="412.63" y="-73.31" font-family="Helvetica,sans-Serif" font-size="32.00" fill="#29235c">*</text>
</g>
<!-- ProposalTag&#45;&gt;Proposal -->
<!-- ProposalTag&#45;&gt;Proposal -->
<g id="edge4" class="edge">
<title>ProposalTag:e&#45;&gt;Proposal:w</title>
<path fill="none" stroke="#29235c" stroke-width="3" d="M418.85,-162.11C492.17,-162.11 480.45,-233.04 507.7,-301.11 555.22,-419.81 493.04,-857.18 610.94,-880.17"/>
<polygon fill="#29235c" stroke="#29235c" stroke-width="3" points="610.63,-883.65 620.92,-881.11 611.29,-876.68 610.63,-883.65"/>
<text text-anchor="middle" x="612.02" y="-852.31" font-family="Helvetica,sans-Serif" font-size="32.00" fill="#29235c">1</text>
<text text-anchor="middle" x="412.63" y="-133.31" font-family="Helvetica,sans-Serif" font-size="32.00" fill="#29235c">*</text>
</g>
<!-- Review -->
<g id="Review" class="node">
<title>Review</title>
<ellipse fill="none" stroke="black" stroke-width="0" cx="253.85" cy="-610.11" rx="253.7" ry="299.63"/>
<polygon fill="#1d71b8" stroke="transparent" points="76.85,-760.11 76.85,-820.11 431.85,-820.11 431.85,-760.11 76.85,-760.11"/>
<polygon fill="none" stroke="#29235c" points="76.85,-760.11 76.85,-820.11 431.85,-820.11 431.85,-760.11 76.85,-760.11"/>
<text text-anchor="start" x="139.66" y="-781.31" font-family="Helvetica,sans-Serif" font-weight="bold" font-size="32.00" fill="#ffffff"> &#160;&#160;&#160;&#160;&#160;&#160;Review &#160;&#160;&#160;&#160;&#160;&#160;</text>
<polygon fill="#e7e2dd" stroke="transparent" points="76.85,-700.11 76.85,-760.11 431.85,-760.11 431.85,-700.11 76.85,-700.11"/>
<polygon fill="none" stroke="#29235c" points="76.85,-700.11 76.85,-760.11 431.85,-760.11 431.85,-700.11 76.85,-700.11"/>
<text text-anchor="start" x="87.85" y="-721.31" font-family="Helvetica,sans-Serif" font-weight="bold" font-size="32.00" fill="#29235c">id</text>
<text text-anchor="start" x="112.74" y="-721.31" font-family="Helvetica,sans-Serif" font-size="32.00" fill="#29235c"> &#160;&#160;&#160;</text>
<text text-anchor="start" x="323.05" y="-721.31" font-family="Helvetica,sans-Serif" font-style="italic" font-size="32.00" fill="#29235c">integer</text>
<polygon fill="#e7e2dd" stroke="transparent" points="76.85,-640.11 76.85,-700.11 431.85,-700.11 431.85,-640.11 76.85,-640.11"/>
<polygon fill="none" stroke="#29235c" points="76.85,-640.11 76.85,-700.11 431.85,-700.11 431.85,-640.11 76.85,-640.11"/>
<text text-anchor="start" x="87.85" y="-660.31" font-family="Helvetica,sans-Serif" font-size="32.00" fill="#29235c">proposal_id &#160;&#160;&#160;</text>
<text text-anchor="start" x="323.05" y="-661.31" font-family="Helvetica,sans-Serif" font-style="italic" font-size="32.00" fill="#29235c">integer</text>
<polygon fill="#e7e2dd" stroke="transparent" points="76.85,-580.11 76.85,-640.11 431.85,-640.11 431.85,-580.11 76.85,-580.11"/>
<polygon fill="none" stroke="#29235c" points="76.85,-580.11 76.85,-640.11 431.85,-640.11 431.85,-580.11 76.85,-580.11"/>
<text text-anchor="start" x="87.85" y="-600.31" font-family="Helvetica,sans-Serif" font-size="32.00" fill="#29235c">reviewer_id &#160;&#160;&#160;</text>
<text text-anchor="start" x="323.05" y="-601.31" font-family="Helvetica,sans-Serif" font-style="italic" font-size="32.00" fill="#29235c">integer</text>
<polygon fill="#e7e2dd" stroke="transparent" points="76.85,-520.11 76.85,-580.11 431.85,-580.11 431.85,-520.11 76.85,-520.11"/>
<polygon fill="none" stroke="#29235c" points="76.85,-520.11 76.85,-580.11 431.85,-580.11 431.85,-520.11 76.85,-520.11"/>
<text text-anchor="start" x="87.85" y="-540.31" font-family="Helvetica,sans-Serif" font-size="32.00" fill="#29235c">score &#160;&#160;&#160;</text>
<text text-anchor="start" x="323.05" y="-541.31" font-family="Helvetica,sans-Serif" font-style="italic" font-size="32.00" fill="#29235c">integer</text>
<polygon fill="#e7e2dd" stroke="transparent" points="76.85,-460.11 76.85,-520.11 431.85,-520.11 431.85,-460.11 76.85,-460.11"/>
<polygon fill="none" stroke="#29235c" points="76.85,-460.11 76.85,-520.11 431.85,-520.11 431.85,-460.11 76.85,-460.11"/>
<text text-anchor="start" x="87.85" y="-480.31" font-family="Helvetica,sans-Serif" font-size="32.00" fill="#29235c">feedback &#160;&#160;&#160;</text>
<text text-anchor="start" x="369.28" y="-481.31" font-family="Helvetica,sans-Serif" font-style="italic" font-size="32.00" fill="#29235c">text</text>
<polygon fill="#e7e2dd" stroke="transparent" points="76.85,-400.11 76.85,-460.11 431.85,-460.11 431.85,-400.11 76.85,-400.11"/>
<polygon fill="none" stroke="#29235c" points="76.85,-400.11 76.85,-460.11 431.85,-460.11 431.85,-400.11 76.85,-400.11"/>
<text text-anchor="start" x="87.48" y="-420.31" font-family="Helvetica,sans-Serif" font-size="32.00" fill="#29235c">created_at &#160;&#160;&#160;</text>
<text text-anchor="start" x="273.57" y="-421.31" font-family="Helvetica,sans-Serif" font-style="italic" font-size="32.00" fill="#29235c">timestamp</text>
<polygon fill="none" stroke="#29235c" stroke-width="2" points="75.35,-399.11 75.35,-821.11 432.35,-821.11 432.35,-399.11 75.35,-399.11"/>
</g>
<!-- Review&#45;&gt;User -->
<!-- Review&#45;&gt;User -->
<g id="edge10" class="edge">
<title>Review:e&#45;&gt;User:w</title>
<path fill="none" stroke="#29235c" stroke-width="3" d="M432.85,-610.11C576.25,-610.11 426.17,-389.26 543.7,-307.11 591.1,-273.98 1020.7,-268.93 1064.13,-307.11 1193.54,-420.86 998.06,-1064.91 1155.28,-1091.27"/>
<polygon fill="#29235c" stroke="#29235c" stroke-width="3" points="1155.38,-1094.79 1165.63,-1092.11 1155.94,-1087.82 1155.38,-1094.79"/>
<text text-anchor="middle" x="1174.52" y="-1101.71" font-family="Helvetica,sans-Serif" font-size="32.00" fill="#29235c">1</text>
<text text-anchor="middle" x="426.63" y="-581.31" font-family="Helvetica,sans-Serif" font-size="32.00" fill="#29235c">*</text>
</g>
<!-- Review&#45;&gt;Proposal -->
<!-- Review&#45;&gt;Proposal -->
<g id="edge8" class="edge">
<title>Review:e&#45;&gt;Proposal:w</title>
<path fill="none" stroke="#29235c" stroke-width="3" d="M432.85,-670.11C554.92,-670.11 498.72,-869.33 610.69,-880.61"/>
<polygon fill="#29235c" stroke="#29235c" stroke-width="3" points="610.76,-884.12 620.92,-881.11 611.1,-877.13 610.76,-884.12"/>
<text text-anchor="middle" x="612.02" y="-890.71" font-family="Helvetica,sans-Serif" font-size="32.00" fill="#29235c">1</text>
<text text-anchor="middle" x="426.63" y="-641.31" font-family="Helvetica,sans-Serif" font-size="32.00" fill="#29235c">*</text>
</g>
<!-- Selection -->
<g id="Selection" class="node">
<title>Selection</title>
<ellipse fill="none" stroke="black" stroke-width="0" cx="253.85" cy="-1143.11" rx="253.7" ry="214.92"/>
<polygon fill="#1d71b8" stroke="transparent" points="76.85,-1233.11 76.85,-1293.11 431.85,-1293.11 431.85,-1233.11 76.85,-1233.11"/>
<polygon fill="none" stroke="#29235c" points="76.85,-1233.11 76.85,-1293.11 431.85,-1293.11 431.85,-1233.11 76.85,-1233.11"/>
<text text-anchor="start" x="126.31" y="-1254.31" font-family="Helvetica,sans-Serif" font-weight="bold" font-size="32.00" fill="#ffffff"> &#160;&#160;&#160;&#160;&#160;&#160;Selection &#160;&#160;&#160;&#160;&#160;&#160;</text>
<polygon fill="#e7e2dd" stroke="transparent" points="76.85,-1173.11 76.85,-1233.11 431.85,-1233.11 431.85,-1173.11 76.85,-1173.11"/>
<polygon fill="none" stroke="#29235c" points="76.85,-1173.11 76.85,-1233.11 431.85,-1233.11 431.85,-1173.11 76.85,-1173.11"/>
<text text-anchor="start" x="87.85" y="-1194.31" font-family="Helvetica,sans-Serif" font-weight="bold" font-size="32.00" fill="#29235c">id</text>
<text text-anchor="start" x="112.74" y="-1194.31" font-family="Helvetica,sans-Serif" font-size="32.00" fill="#29235c"> &#160;&#160;&#160;</text>
<text text-anchor="start" x="323.05" y="-1194.31" font-family="Helvetica,sans-Serif" font-style="italic" font-size="32.00" fill="#29235c">integer</text>
<polygon fill="#e7e2dd" stroke="transparent" points="76.85,-1113.11 76.85,-1173.11 431.85,-1173.11 431.85,-1113.11 76.85,-1113.11"/>
<polygon fill="none" stroke="#29235c" points="76.85,-1113.11 76.85,-1173.11 431.85,-1173.11 431.85,-1113.11 76.85,-1113.11"/>
<text text-anchor="start" x="87.85" y="-1133.31" font-family="Helvetica,sans-Serif" font-size="32.00" fill="#29235c">organizer_id &#160;&#160;&#160;</text>
<text text-anchor="start" x="323.05" y="-1134.31" font-family="Helvetica,sans-Serif" font-style="italic" font-size="32.00" fill="#29235c">integer</text>
<polygon fill="#e7e2dd" stroke="transparent" points="76.85,-1053.11 76.85,-1113.11 431.85,-1113.11 431.85,-1053.11 76.85,-1053.11"/>
<polygon fill="none" stroke="#29235c" points="76.85,-1053.11 76.85,-1113.11 431.85,-1113.11 431.85,-1053.11 76.85,-1053.11"/>
<text text-anchor="start" x="87.85" y="-1073.31" font-family="Helvetica,sans-Serif" font-size="32.00" fill="#29235c">proposal_id &#160;&#160;&#160;</text>
<text text-anchor="start" x="323.05" y="-1074.31" font-family="Helvetica,sans-Serif" font-style="italic" font-size="32.00" fill="#29235c">integer</text>
<polygon fill="#e7e2dd" stroke="transparent" points="76.85,-993.11 76.85,-1053.11 431.85,-1053.11 431.85,-993.11 76.85,-993.11"/>
<polygon fill="none" stroke="#29235c" points="76.85,-993.11 76.85,-1053.11 431.85,-1053.11 431.85,-993.11 76.85,-993.11"/>
<text text-anchor="start" x="87.48" y="-1013.31" font-family="Helvetica,sans-Serif" font-size="32.00" fill="#29235c">created_at &#160;&#160;&#160;</text>
<text text-anchor="start" x="273.57" y="-1014.31" font-family="Helvetica,sans-Serif" font-style="italic" font-size="32.00" fill="#29235c">timestamp</text>
<polygon fill="none" stroke="#29235c" stroke-width="2" points="75.35,-992.11 75.35,-1294.11 432.35,-1294.11 432.35,-992.11 75.35,-992.11"/>
</g>
<!-- Selection&#45;&gt;User -->
<!-- Selection&#45;&gt;User -->
<g id="edge12" class="edge">
<title>Selection:e&#45;&gt;User:w</title>
<path fill="none" stroke="#29235c" stroke-width="3" d="M432.85,-1143.11C592.82,-1143.11 986.22,-1094.13 1155.54,-1092.17"/>
<polygon fill="#29235c" stroke="#29235c" stroke-width="3" points="1155.65,-1095.67 1165.63,-1092.11 1155.61,-1088.67 1155.65,-1095.67"/>
<text text-anchor="middle" x="1156.73" y="-1063.31" font-family="Helvetica,sans-Serif" font-size="32.00" fill="#29235c">1</text>
<text text-anchor="middle" x="426.63" y="-1152.71" font-family="Helvetica,sans-Serif" font-size="32.00" fill="#29235c">*</text>
</g>
<!-- Selection&#45;&gt;Proposal -->
<!-- Selection&#45;&gt;Proposal -->
<g id="edge14" class="edge">
<title>Selection:e&#45;&gt;Proposal:w</title>
<path fill="none" stroke="#29235c" stroke-width="3" d="M432.85,-1083.11C552.04,-1083.11 501.35,-892.39 610.92,-881.58"/>
<polygon fill="#29235c" stroke="#29235c" stroke-width="3" points="611.1,-885.08 620.92,-881.11 610.76,-878.09 611.1,-885.08"/>
<text text-anchor="middle" x="629.81" y="-852.31" font-family="Helvetica,sans-Serif" font-size="32.00" fill="#29235c">1</text>
<text text-anchor="middle" x="426.63" y="-1092.71" font-family="Helvetica,sans-Serif" font-size="32.00" fill="#29235c">*</text>
</g>
</g>
</svg>

