<?xml version="1.0" encoding="UTF-8" standalone="no"?>
<!DOCTYPE svg PUBLIC "-//W3C//DTD SVG 1.1//EN"
 "http://www.w3.org/Graphics/SVG/1.1/DTD/svg11.dtd">
<!-- Generated by graphviz version 2.47.0 (20210316.0004)
 -->
<!-- Title: dbml Pages: 1 -->
<svg width="1545pt" height="1142pt"
 viewBox="0.00 0.00 1545.13 1141.62" xmlns="http://www.w3.org/2000/svg" xmlns:xlink="http://www.w3.org/1999/xlink">
<g id="graph0" class="graph" transform="scale(1 1) rotate(0) translate(4 1137.62)">
<title>dbml</title>
<!-- User -->
<g id="User" class="node">
<title>User</title>
<ellipse fill="none" stroke="black" stroke-width="0" cx="1318.63" cy="-821.11" rx="218.49" ry="214.92"/>
<polygon fill="#1d71b8" stroke="transparent" points="1166.63,-911.11 1166.63,-971.11 1471.63,-971.11 1471.63,-911.11 1166.63,-911.11"/>
<polygon fill="none" stroke="#29235c" points="1166.63,-911.11 1166.63,-971.11 1471.63,-971.11 1471.63,-911.11 1166.63,-911.11"/>
<text text-anchor="start" x="1223.11" y="-932.31" font-family="Helvetica,sans-Serif" font-weight="bold" font-size="32.00" fill="#ffffff"> &#160;&#160;&#160;&#160;&#160;&#160;User &#160;&#160;&#160;&#160;&#160;&#160;</text>
<polygon fill="#e7e2dd" stroke="transparent" points="1166.63,-851.11 1166.63,-911.11 1471.63,-911.11 1471.63,-851.11 1166.63,-851.11"/>
<polygon fill="none" stroke="#29235c" points="1166.63,-851.11 1166.63,-911.11 1471.63,-911.11 1471.63,-851.11 1166.63,-851.11"/>
<text text-anchor="start" x="1177.63" y="-872.31" font-family="Helvetica,sans-Serif" font-weight="bold" font-size="32.00" fill="#29235c">id</text>
<text text-anchor="start" x="1202.52" y="-872.31" font-family="Helvetica,sans-Serif" font-size="32.00" fill="#29235c"> &#160;&#160;&#160;</text>
<text text-anchor="start" x="1362.83" y="-872.31" font-family="Helvetica,sans-Serif" font-style="italic" font-size="32.00" fill="#29235c">integer</text>
<polygon fill="#e7e2dd" stroke="transparent" points="1166.63,-791.11 1166.63,-851.11 1471.63,-851.11 1471.63,-791.11 1166.63,-791.11"/>
<polygon fill="none" stroke="#29235c" points="1166.63,-791.11 1166.63,-851.11 1471.63,-851.11 1471.63,-791.11 1166.63,-791.11"/>
<text text-anchor="start" x="1177.22" y="-811.31" font-family="Helvetica,sans-Serif" font-size="32.00" fill="#29235c">username &#160;&#160;&#160;</text>
<text text-anchor="start" x="1354.29" y="-812.31" font-family="Helvetica,sans-Serif" font-style="italic" font-size="32.00" fill="#29235c">varchar</text>
<polygon fill="#e7e2dd" stroke="transparent" points="1166.63,-731.11 1166.63,-791.11 1471.63,-791.11 1471.63,-731.11 1166.63,-731.11"/>
<polygon fill="none" stroke="#29235c" points="1166.63,-731.11 1166.63,-791.11 1471.63,-791.11 1471.63,-731.11 1166.63,-731.11"/>
<text text-anchor="start" x="1177.63" y="-751.31" font-family="Helvetica,sans-Serif" font-size="32.00" fill="#29235c">email &#160;&#160;&#160;</text>
<text text-anchor="start" x="1353.96" y="-752.31" font-family="Helvetica,sans-Serif" font-style="italic" font-size="32.00" fill="#29235c">varchar</text>
<polygon fill="#e7e2dd" stroke="transparent" points="1166.63,-671.11 1166.63,-731.11 1471.63,-731.11 1471.63,-671.11 1166.63,-671.11"/>
<polygon fill="none" stroke="#29235c" points="1166.63,-671.11 1166.63,-731.11 1471.63,-731.11 1471.63,-671.11 1166.63,-671.11"/>
<text text-anchor="start" x="1177.63" y="-691.31" font-family="Helvetica,sans-Serif" font-size="32.00" fill="#29235c">groups &#160;&#160;&#160;</text>
<text text-anchor="start" x="1353.96" y="-692.31" font-family="Helvetica,sans-Serif" font-style="italic" font-size="32.00" fill="#29235c">varchar</text>
<polygon fill="none" stroke="#29235c" stroke-width="2" points="1165.13,-670.11 1165.13,-972.11 1472.13,-972.11 1472.13,-670.11 1165.13,-670.11"/>
</g>
<!-- Tag -->
<g id="Tag" class="node">
<title>Tag</title>
<ellipse fill="none" stroke="black" stroke-width="0" cx="803.92" cy="-130.11" rx="174.81" ry="130.22"/>
<polygon fill="#1d71b8" stroke="transparent" points="682.92,-160.11 682.92,-220.11 925.92,-220.11 925.92,-160.11 682.92,-160.11"/>
<polygon fill="none" stroke="#29235c" points="682.92,-160.11 682.92,-220.11 925.92,-220.11 925.92,-160.11 682.92,-160.11"/>
<text text-anchor="start" x="714.61" y="-181.31" font-family="Helvetica,sans-Serif" font-weight="bold" font-size="32.00" fill="#ffffff"> &#160;&#160;&#160;&#160;&#160;&#160;Tag &#160;&#160;&#160;&#160;&#160;&#160;</text>
<polygon fill="#e7e2dd" stroke="transparent" points="682.92,-100.11 682.92,-160.11 925.92,-160.11 925.92,-100.11 682.92,-100.11"/>
<polygon fill="none" stroke="#29235c" points="682.92,-100.11 682.92,-160.11 925.92,-160.11 925.92,-100.11 682.92,-100.11"/>
<text text-anchor="start" x="693.92" y="-121.31" font-family="Helvetica,sans-Serif" font-weight="bold" font-size="32.00" fill="#29235c">id</text>
<text text-anchor="start" x="718.81" y="-121.31" font-family="Helvetica,sans-Serif" font-size="32.00" fill="#29235c"> &#160;&#160;&#160;</text>
<text text-anchor="start" x="817.12" y="-121.31" font-family="Helvetica,sans-Serif" font-style="italic" font-size="32.00" fill="#29235c">integer</text>
<polygon fill="#e7e2dd" stroke="transparent" points="682.92,-40.11 682.92,-100.11 925.92,-100.11 925.92,-40.11 682.92,-40.11"/>
<polygon fill="none" stroke="#29235c" points="682.92,-40.11 682.92,-100.11 925.92,-100.11 925.92,-40.11 682.92,-40.11"/>
<text text-anchor="start" x="693.62" y="-60.31" font-family="Helvetica,sans-Serif" font-size="32.00" fill="#29235c">name &#160;&#160;&#160;</text>
<text text-anchor="start" x="808.58" y="-61.31" font-family="Helvetica,sans-Serif" font-style="italic" font-size="32.00" fill="#29235c">varchar</text>
<polygon fill="none" stroke="#29235c" stroke-width="2" points="681.42,-39.11 681.42,-221.11 926.42,-221.11 926.42,-39.11 681.42,-39.11"/>
</g>
<!-- Proposal -->
<g id="Proposal" class="node">
<title>Proposal</title>
<ellipse fill="none" stroke="black" stroke-width="0" cx="803.92" cy="-701.11" rx="260.43" ry="384.83"/>
<polygon fill="#1d71b8" stroke="transparent" points="621.92,-911.11 621.92,-971.11 985.92,-971.11 985.92,-911.11 621.92,-911.11"/>
<polygon fill="none" stroke="#29235c" points="621.92,-911.11 621.92,-971.11 985.92,-971.11 985.92,-911.11 621.92,-911.11"/>
<text text-anchor="start" x="678.54" y="-932.31" font-family="Helvetica,sans-Serif" font-weight="bold" font-size="32.00" fill="#ffffff"> &#160;&#160;&#160;&#160;&#160;&#160;Proposal &#160;&#160;&#160;&#160;&#160;&#160;</text>
<polygon fill="#e7e2dd" stroke="transparent" points="621.92,-851.11 621.92,-911.11 985.92,-911.11 985.92,-851.11 621.92,-851.11"/>
<polygon fill="none" stroke="#29235c" points="621.92,-851.11 621.92,-911.11 985.92,-911.11 985.92,-851.11 621.92,-851.11"/>
<text text-anchor="start" x="632.92" y="-872.31" font-family="Helvetica,sans-Serif" font-weight="bold" font-size="32.00" fill="#29235c">id</text>
<text text-anchor="start" x="657.81" y="-872.31" font-family="Helvetica,sans-Serif" font-size="32.00" fill="#29235c"> &#160;&#160;&#160;</text>
<text text-anchor="start" x="877.12" y="-872.31" font-family="Helvetica,sans-Serif" font-style="italic" font-size="32.00" fill="#29235c">integer</text>
<polygon fill="#e7e2dd" stroke="transparent" points="621.92,-791.11 621.92,-851.11 985.92,-851.11 985.92,-791.11 621.92,-791.11"/>
<polygon fill="none" stroke="#29235c" points="621.92,-791.11 621.92,-851.11 985.92,-851.11 985.92,-791.11 621.92,-791.11"/>
<text text-anchor="start" x="632.92" y="-811.31" font-family="Helvetica,sans-Serif" font-size="32.00" fill="#29235c">author_id &#160;&#160;&#160;</text>
<text text-anchor="start" x="877.12" y="-812.31" font-family="Helvetica,sans-Serif" font-style="italic" font-size="32.00" fill="#29235c">integer</text>
<polygon fill="#e7e2dd" stroke="transparent" points="621.92,-731.11 621.92,-791.11 985.92,-791.11 985.92,-731.11 621.92,-731.11"/>
<polygon fill="none" stroke="#29235c" points="621.92,-731.11 621.92,-791.11 985.92,-791.11 985.92,-731.11 621.92,-731.11"/>
<text text-anchor="start" x="632.92" y="-751.31" font-family="Helvetica,sans-Serif" font-size="32.00" fill="#29235c">title &#160;&#160;&#160;</text>
<text text-anchor="start" x="868.25" y="-752.31" font-family="Helvetica,sans-Serif" font-style="italic" font-size="32.00" fill="#29235c">varchar</text>
<polygon fill="#e7e2dd" stroke="transparent" points="621.92,-671.11 621.92,-731.11 985.92,-731.11 985.92,-671.11 621.92,-671.11"/>
<polygon fill="none" stroke="#29235c" points="621.92,-671.11 621.92,-731.11 985.92,-731.11 985.92,-671.11 621.92,-671.11"/>
<text text-anchor="start" x="632.92" y="-691.31" font-family="Helvetica,sans-Serif" font-size="32.00" fill="#29235c">abstract &#160;&#160;&#160;</text>
<text text-anchor="start" x="923.34" y="-692.31" font-family="Helvetica,sans-Serif" font-style="italic" font-size="32.00" fill="#29235c">text</text>
<polygon fill="#e7e2dd" stroke="transparent" points="621.92,-611.11 621.92,-671.11 985.92,-671.11 985.92,-611.11 621.92,-611.11"/>
<polygon fill="none" stroke="#29235c" points="621.92,-611.11 621.92,-671.11 985.92,-671.11 985.92,-611.11 621.92,-611.11"/>
<text text-anchor="start" x="632.92" y="-631.31" font-family="Helvetica,sans-Serif" font-size="32.00" fill="#29235c">private_notes &#160;&#160;&#160;</text>
<text text-anchor="start" x="923.34" y="-632.31" font-family="Helvetica,sans-Serif" font-style="italic" font-size="32.00" fill="#29235c">text</text>
<polygon fill="#e7e2dd" stroke="transparent" points="621.92,-551.11 621.92,-611.11 985.92,-611.11 985.92,-551.11 621.92,-551.11"/>
<polygon fill="none" stroke="#29235c" points="621.92,-551.11 621.92,-611.11 985.92,-611.11 985.92,-551.11 621.92,-551.11"/>
<text text-anchor="start" x="632.92" y="-571.31" font-family="Helvetica,sans-Serif" font-size="32.00" fill="#29235c">status &#160;&#160;&#160;</text>
<text text-anchor="start" x="868.25" y="-572.31" font-family="Helvetica,sans-Serif" font-style="italic" font-size="32.00" fill="#29235c">varchar</text>
<polygon fill="#e7e2dd" stroke="transparent" points="621.92,-491.11 621.92,-551.11 985.92,-551.11 985.92,-491.11 621.92,-491.11"/>
<polygon fill="none" stroke="#29235c" points="621.92,-491.11 621.92,-551.11 985.92,-551.11 985.92,-491.11 621.92,-491.11"/>
<text text-anchor="start" x="632.92" y="-511.31" font-family="Helvetica,sans-Serif" font-size="32.00" fill="#29235c">created_at &#160;&#160;&#160;</text>
<text text-anchor="start" x="827.36" y="-512.31" font-family="Helvetica,sans-Serif" font-style="italic" font-size="32.00" fill="#29235c">timestamp</text>
<polygon fill="#e7e2dd" stroke="transparent" points="621.92,-431.11 621.92,-491.11 985.92,-491.11 985.92,-431.11 621.92,-431.11"/>
<polygon fill="none" stroke="#29235c" points="621.92,-431.11 621.92,-491.11 985.92,-491.11 985.92,-431.11 621.92,-431.11"/>
<text text-anchor="start" x="632.58" y="-451.31" font-family="Helvetica,sans-Serif" font-size="32.00" fill="#29235c">updated_at &#160;&#160;&#160;</text>
<text text-anchor="start" x="827.64" y="-452.31" font-family="Helvetica,sans-Serif" font-style="italic" font-size="32.00" fill="#29235c">timestamp</text>
<polygon fill="none" stroke="#29235c" stroke-width="2" points="620.92,-430.11 620.92,-972.11 986.92,-972.11 986.92,-430.11 620.92,-430.11"/>
</g>
<!-- Proposal&#45;&gt;User -->
<!-- Proposal&#45;&gt;User -->
<g id="edge2" class="edge">
<title>Proposal:e&#45;&gt;User:w</title>
<path fill="none" stroke="#29235c" stroke-width="3" d="M986.92,-821.11C1067.1,-821.11 1080.75,-876.06 1155.22,-880.78"/>
<polygon fill="#29235c" stroke="#29235c" stroke-width="3" points="1155.53,-884.3 1165.63,-881.11 1155.74,-877.3 1155.53,-884.3"/>
<text text-anchor="middle" x="1156.73" y="-890.71" font-family="Helvetica,sans-Serif" font-size="32.00" fill="#29235c">1</text>
<text text-anchor="middle" x="980.7" y="-830.71" font-family="Helvetica,sans-Serif" font-size="32.00" fill="#29235c">*</text>
</g>
<!-- ProposalTag -->
<g id="ProposalTag" class="node">
<title>ProposalTag</title>
<ellipse fill="none" stroke="black" stroke-width="0" cx="253.85" cy="-251.11" rx="234.1" ry="130.22"/>
<polygon fill="#1d71b8" stroke="transparent" points="90.85,-281.11 90.85,-341.11 417.85,-341.11 417.85,-281.11 90.85,-281.11"/>
<polygon fill="none" stroke="#29235c" points="90.85,-281.11 90.85,-341.11 417.85,-341.11 417.85,-281.11 90.85,-281.11"/>
<text text-anchor="start" x="101.41" y="-302.31" font-family="Helvetica,sans-Serif" font-weight="bold" font-size="32.00" fill="#ffffff"> &#160;&#160;&#160;&#160;&#160;&#160;ProposalTag &#160;&#160;&#160;&#160;&#160;&#160;</text>
<polygon fill="#e7e2dd" stroke="transparent" points="90.85,-221.11 90.85,-281.11 417.85,-281.11 417.85,-221.11 90.85,-221.11"/>
<polygon fill="none" stroke="#29235c" points="90.85,-221.11 90.85,-281.11 417.85,-281.11 417.85,-221.11 90.85,-221.11"/>
<text text-anchor="start" x="101.85" y="-241.31" font-family="Helvetica,sans-Serif" font-size="32.00" fill="#29235c">proposal_id &#160;&#160;&#160;</text>
<text text-anchor="start" x="309.05" y="-242.31" font-family="Helvetica,sans-Serif" font-style="italic" font-size="32.00" fill="#29235c">integer</text>
<polygon fill="#e7e2dd" stroke="transparent" points="90.85,-161.11 90.85,-221.11 417.85,-221.11 417.85,-161.11 90.85,-161.11"/>
<polygon fill="none" stroke="#29235c" points="90.85,-161.11 90.85,-221.11 417.85,-221.11 417.85,-161.11 90.85,-161.11"/>
<text text-anchor="start" x="101.85" y="-181.31" font-family="Helvetica,sans-Serif" font-size="32.00" fill="#29235c">tag_id &#160;&#160;&#160;</text>
<text text-anchor="start" x="309.05" y="-182.31" font-family="Helvetica,sans-Serif" font-style="italic" font-size="32.00" fill="#29235c">integer</text>
<polygon fill="none" stroke="#29235c" stroke-width="2" points="89.35,-160.11 89.35,-342.11 418.35,-342.11 418.35,-160.11 89.35,-160.11"/>
</g>
<!-- ProposalTag&#45;&gt;Tag -->
<!-- ProposalTag&#45;&gt;Tag -->
<g id="edge6" class="edge">
<title>ProposalTag:e&#45;&gt;Tag:w</title>
<path fill="none" stroke="#29235c" stroke-width="3" d="M418.85,-191.11C535.36,-191.11 560.46,-133.63 671.61,-130.26"/>
<polygon fill="#29235c" stroke="#29235c" stroke-width="3" points="671.97,-133.76 681.92,-130.11 671.87,-126.76 671.97,-133.76"/>
<text text-anchor="middle" x="673.02" y="-101.31" font-family="Helvetica,sans-Serif" font-size="32.00" fill="#29235c">1</text>
<text text-anchor="middle" x="412.63" y="-162.31" font-family="Helvetica,sans-Serif" font-size="32.00" fill="#29235c">*</text>
</g>
<!-- ProposalTag&#45;&gt;Proposal -->
<!-- ProposalTag&#45;&gt;Proposal -->
<g id="edge4" class="edge">
<title>ProposalTag:e&#45;&gt;Proposal:w</title>
<path fill="none" stroke="#29235c" stroke-width="3" d="M418.85,-251.11C562.43,-251.11 478.07,-851.92 610.97,-880.09"/>
<polygon fill="#29235c" stroke="#29235c" stroke-width="3" points="610.61,-883.57 620.92,-881.11 611.33,-876.6 610.61,-883.57"/>
<text text-anchor="middle" x="612.02" y="-890.71" font-family="Helvetica,sans-Serif" font-size="32.00" fill="#29235c">1</text>
<text text-anchor="middle" x="412.63" y="-222.31" font-family="Helvetica,sans-Serif" font-size="32.00" fill="#29235c">*</text>
</g>
<!-- Review -->
<g id="Review" class="node">
<title>Review</title>
<ellipse fill="none" stroke="black" stroke-width="0" cx="253.85" cy="-791.11" rx="253.7" ry="299.63"/>
<polygon fill="#1d71b8" stroke="transparent" points="76.85,-941.11 76.85,-1001.11 431.85,-1001.11 431.85,-941.11 76.85,-941.11"/>
<polygon fill="none" stroke="#29235c" points="76.85,-941.11 76.85,-1001.11 431.85,-1001.11 431.85,-941.11 76.85,-941.11"/>
<text text-anchor="start" x="139.66" y="-962.31" font-family="Helvetica,sans-Serif" font-weight="bold" font-size="32.00" fill="#ffffff"> &#160;&#160;&#160;&#160;&#160;&#160;Review &#160;&#160;&#160;&#160;&#160;&#160;</text>
<polygon fill="#e7e2dd" stroke="transparent" points="76.85,-881.11 76.85,-941.11 431.85,-941.11 431.85,-881.11 76.85,-881.11"/>
<polygon fill="none" stroke="#29235c" points="76.85,-881.11 76.85,-941.11 431.85,-941.11 431.85,-881.11 76.85,-881.11"/>
<text text-anchor="start" x="87.85" y="-902.31" font-family="Helvetica,sans-Serif" font-weight="bold" font-size="32.00" fill="#29235c">id</text>
<text text-anchor="start" x="112.74" y="-902.31" font-family="Helvetica,sans-Serif" font-size="32.00" fill="#29235c"> &#160;&#160;&#160;</text>
<text text-anchor="start" x="323.05" y="-902.31" font-family="Helvetica,sans-Serif" font-style="italic" font-size="32.00" fill="#29235c">integer</text>
<polygon fill="#e7e2dd" stroke="transparent" points="76.85,-821.11 76.85,-881.11 431.85,-881.11 431.85,-821.11 76.85,-821.11"/>
<polygon fill="none" stroke="#29235c" points="76.85,-821.11 76.85,-881.11 431.85,-881.11 431.85,-821.11 76.85,-821.11"/>
<text text-anchor="start" x="87.85" y="-841.31" font-family="Helvetica,sans-Serif" font-size="32.00" fill="#29235c">proposal_id &#160;&#160;&#160;</text>
<text text-anchor="start" x="323.05" y="-842.31" font-family="Helvetica,sans-Serif" font-style="italic" font-size="32.00" fill="#29235c">integer</text>
<polygon fill="#e7e2dd" stroke="transparent" points="76.85,-761.11 76.85,-821.11 431.85,-821.11 431.85,-761.11 76.85,-761.11"/>
<polygon fill="none" stroke="#29235c" points="76.85,-761.11 76.85,-821.11 431.85,-821.11 431.85,-761.11 76.85,-761.11"/>
<text text-anchor="start" x="87.85" y="-781.31" font-family="Helvetica,sans-Serif" font-size="32.00" fill="#29235c">reviewer_id &#160;&#160;&#160;</text>
<text text-anchor="start" x="323.05" y="-782.31" font-family="Helvetica,sans-Serif" font-style="italic" font-size="32.00" fill="#29235c">integer</text>
<polygon fill="#e7e2dd" stroke="transparent" points="76.85,-701.11 76.85,-761.11 431.85,-761.11 431.85,-701.11 76.85,-701.11"/>
<polygon fill="none" stroke="#29235c" points="76.85,-701.11 76.85,-761.11 431.85,-761.11 431.85,-701.11 76.85,-701.11"/>
<text text-anchor="start" x="87.85" y="-721.31" font-family="Helvetica,sans-Serif" font-size="32.00" fill="#29235c">score &#160;&#160;&#160;</text>
<text text-anchor="start" x="323.05" y="-722.31" font-family="Helvetica,sans-Serif" font-style="italic" font-size="32.00" fill="#29235c">integer</text>
<polygon fill="#e7e2dd" stroke="transparent" points="76.85,-641.11 76.85,-701.11 431.85,-701.11 431.85,-641.11 76.85,-641.11"/>
<polygon fill="none" stroke="#29235c" points="76.85,-641.11 76.85,-701.11 431.85,-701.11 431.85,-641.11 76.85,-641.11"/>
<text text-anchor="start" x="87.85" y="-661.31" font-family="Helvetica,sans-Serif" font-size="32.00" fill="#29235c">feedback &#160;&#160;&#160;</text>
<text text-anchor="start" x="369.28" y="-662.31" font-family="Helvetica,sans-Serif" font-style="italic" font-size="32.00" fill="#29235c">text</text>
<polygon fill="#e7e2dd" stroke="transparent" points="76.85,-581.11 76.85,-641.11 431.85,-641.11 431.85,-581.11 76.85,-581.11"/>
<polygon fill="none" stroke="#29235c" points="76.85,-581.11 76.85,-641.11 431.85,-641.11 431.85,-581.11 76.85,-581.11"/>
<text text-anchor="start" x="87.48" y="-601.31" font-family="Helvetica,sans-Serif" font-size="32.00" fill="#29235c">created_at &#160;&#160;&#160;</text>
<text text-anchor="start" x="273.57" y="-602.31" font-family="Helvetica,sans-Serif" font-style="italic" font-size="32.00" fill="#29235c">timestamp</text>
<polygon fill="none" stroke="#29235c" stroke-width="2" points="75.35,-580.11 75.35,-1002.11 432.35,-1002.11 432.35,-580.11 75.35,-580.11"/>
</g>
<!-- Review&#45;&gt;User -->
<!-- Review&#45;&gt;User -->
<g id="edge10" class="edge">
<title>Review:e&#45;&gt;User:w</title>
<path fill="none" stroke="#29235c" stroke-width="3" d="M432.85,-791.11C543.19,-791.11 457.41,-375.87 543.7,-307.11 588.93,-271.07 1019.83,-269.95 1064.13,-307.11 1259.92,-471.31 916.19,-870.01 1155.35,-880.88"/>
<polygon fill="#29235c" stroke="#29235c" stroke-width="3" points="1155.55,-884.39 1165.63,-881.11 1155.71,-877.39 1155.55,-884.39"/>
<text text-anchor="middle" x="1174.52" y="-890.71" font-family="Helvetica,sans-Serif" font-size="32.00" fill="#29235c">1</text>
<text text-anchor="middle" x="426.63" y="-800.71" font-family="Helvetica,sans-Serif" font-size="32.00" fill="#29235c">*</text>
</g>
<!-- Review&#45;&gt;Proposal -->
<!-- Review&#45;&gt;Proposal -->
<g id="edge8" class="edge">
<title>Review:e&#45;&gt;Proposal:w</title>
<path fill="none" stroke="#29235c" stroke-width="3" d="M432.85,-851.11C514.02,-851.11 534.62,-878.7 610.83,-880.96"/>
<polygon fill="#29235c" stroke="#29235c" stroke-width="3" points="610.87,-884.46 620.92,-881.11 610.97,-877.46 610.87,-884.46"/>
<text text-anchor="middle" x="612.02" y="-852.31" font-family="Helvetica,sans-Serif" font-size="32.00" fill="#29235c">1</text>
<text text-anchor="middle" x="426.63" y="-860.71" font-family="Helvetica,sans-Serif" font-size="32.00" fill="#29235c">*</text>
</g>
</g>
</svg>

